<?xml version="1.0" encoding="UTF-8"?>
<svg id="_图层_1" data-name=" 图层 1" xmlns="http://www.w3.org/2000/svg" version="1.1" viewBox="0 0 16 16">
  <defs>
    <style>
      .cls-1 {
        stroke: #2c2e2f;
        stroke-width: .8px;
      }

      .cls-1, .cls-2 {
        fill: #afb1b3;
      }

      .cls-3 {
        fill: #3d3f41;
      }

      .cls-3, .cls-2 {
        stroke-width: 0px;
      }
    </style>
  </defs>
  <rect class="cls-1" x="1.5" y="1.5" width="13" height="13" rx=".6" ry=".6"/>
  <path class="cls-3" d="M8,10.6c-1,0-1.9-.4-2.7-1-.4-.3-.4-.5,0-.7.3-.2.5-.4.7-.7.3-.5.7-.9,1.2-1.3.5-.3.9-.3,1.4,0,.5.3,1,.8,1.3,1.3.2.3.3.5.6.6,0,0,.1,0,.2.1.3.2.3.4,0,.6-.3.3-.7.5-1.1.6-.5.2-1.1.3-1.7.4Z"/>
  <path class="cls-3" d="M5.8,7.3c0,.3,0,.6-.1.9-.2.4-.5.6-.9.6-.4,0-.7-.2-.9-.6-.2-.6-.2-1.2,0-1.8.1-.4.4-.6.8-.6.4,0,.7.3.8.6.1.3.2.6.2.9Z"/>
  <path class="cls-3" d="M10.3,7.3c0,.3,0,.6.1.9.2.4.5.6.9.6.4,0,.7-.2.9-.6.2-.6.2-1.2,0-1.8-.1-.4-.4-.6-.8-.6-.4,0-.7.3-.8.6-.1.3-.2.6-.2,1Z"/>
  <g>
    <path class="cls-2" d="M9.3,8.5s0,0,0,0c-.2-.1-.3-.2-.5-.3,0,0-.2,0-.2,0,0,.1,0,.2.1.2.2,0,.4.1.5.2,0,0,.1,0,.1,0Z"/>
    <path class="cls-2" d="M7.6,8.1c-.1.1-.3.2-.5.4,0,0,0,0,0,0,0,0,0,0,0,0,.2,0,.4-.1.6-.2,0,0,.1,0,0-.2,0,0,0,0-.2,0Z"/>
    <ellipse class="cls-2" cx="5.1" cy="6.7" rx=".3" ry=".4"/>
    <ellipse class="cls-2" cx="11" cy="6.7" rx=".3" ry=".4"/>
  </g>
</svg>