<svg width="16" height="16" viewBox="0 0 16 16" fill="none" xmlns="http://www.w3.org/2000/svg">
    <path cx="6" cy="6" r="5.5" stroke="#9DA0A8"
          d="M15.333 8A7.333 7.333 0 0 1 8 15.333A7.333 7.333 0 0 1 0.667 8A7.333 7.333 0 0 1 15.333 8z"
          stroke-width="1.3333333333333333"/>
    <path d="M11.333 8c0 2.128 -0.433 4.021 -1.101 5.359C9.544 14.736 8.716 15.333 8 15.333s-1.544 -0.597 -2.232 -1.975C5.1 12.021 4.667 10.128 4.667 8s0.433 -4.021 1.101 -5.359C6.456 1.264 7.284 0.667 8 0.667s1.544 0.597 2.232 1.975C10.9 3.979 11.333 5.872 11.333 8Z"
          stroke="#9DA0A8" stroke-width="1.3333333333333333"/>
    <path d="M14.667 6H1.333" stroke="#9DA0A8" stroke-width="1.3333333333333333"/>
    <path d="M14.667 10H1.333" stroke="#9DA0A8" stroke-width="1.3333333333333333"/>
</svg>