<svg width="16" height="16" viewBox="0 0 16 16" fill="none" xmlns="http://www.w3.org/2000/svg">
<path d="M14.5 13C14.2239 13 14 12.7761 14 12.5L14 2.5C14 2.22386 14.2239 2 14.5 2C14.7761 2 15 2.22386 15 2.5L15 12.5C15 12.7761 14.7761 13 14.5 13Z" fill="#CED0D6"/>
<path d="M7.85355 3.14645C7.65829 2.95118 7.34171 2.95118 7.14645 3.14645C6.95118 3.34171 6.95118 3.65829 7.14645 3.85355L10.2929 7H1.5C1.22386 7 1 7.22386 1 7.5C1 7.77614 1.22386 8 1.5 8H10.2929L7.14645 11.1464C6.95118 11.3417 6.95118 11.6583 7.14645 11.8536C7.34171 12.0488 7.65829 12.0488 7.85355 11.8536L11.8536 7.85355C12.0488 7.65829 12.0488 7.34171 11.8536 7.14645L7.85355 3.14645Z" fill="#CED0D6"/>
</svg>
