<svg width="16" height="16" viewBox="0 0 16 16" fill="none" xmlns="http://www.w3.org/2000/svg">
<path d="M1.5 13C1.22386 13 1 12.7761 1 12.5L1 2.5C0.999999 2.22386 1.22386 2 1.5 2C1.77614 2 2 2.22386 2 2.5L2 12.5C2 12.7761 1.77614 13 1.5 13Z" fill="#6C707E"/>
<path d="M10.8536 3.14645C10.6583 2.95118 10.3417 2.95118 10.1464 3.14645C9.95118 3.34171 9.95118 3.65829 10.1464 3.85355L13.2929 7H4.5C4.22386 7 4 7.22386 4 7.5C4 7.77614 4.22386 8 4.5 8H13.2929L10.1464 11.1464C9.95118 11.3417 9.95118 11.6583 10.1464 11.8536C10.3417 12.0488 10.6583 12.0488 10.8536 11.8536L14.8536 7.85355C15.0488 7.65829 15.0488 7.34171 14.8536 7.14645L10.8536 3.14645Z" fill="#6C707E"/>
</svg>
